# Blender 3.6.1
# www.blender.org
mtllib candle_wick_1.mtl
o candle_wick_2.004
v 6.969701 4.683467 0.700242
v 6.969171 4.683468 0.699973
v 6.969171 4.683468 0.699973
v 6.968986 4.683467 0.699408
v 6.969254 4.683467 0.698878
v 6.969820 4.683467 0.698693
v 6.970350 4.683467 0.698962
v 6.970535 4.683467 0.699527
v 6.970266 4.683467 0.700057
v 6.969375 4.694935 0.700504
v 6.968844 4.694935 0.700235
v 6.968844 4.694935 0.700235
v 6.968659 4.694935 0.699670
v 6.968928 4.694935 0.699140
v 6.969493 4.694934 0.698955
v 6.970024 4.694934 0.699224
v 6.970209 4.694934 0.699789
v 6.969940 4.694935 0.700319
v 6.969202 4.699320 0.700644
v 6.969375 4.703702 0.700504
v 6.968844 4.703732 0.700236
v 6.968844 4.703732 0.700236
v 6.968670 4.699320 0.700375
v 6.968670 4.699320 0.700375
v 6.968660 4.703746 0.699670
v 6.968486 4.699320 0.699809
v 6.968929 4.703737 0.699140
v 6.968756 4.699320 0.699278
v 6.969494 4.703710 0.698955
v 6.969321 4.699320 0.699095
v 6.970024 4.703680 0.699224
v 6.969850 4.699320 0.699364
v 6.970208 4.703666 0.699789
v 6.970035 4.699320 0.699927
v 6.969939 4.703675 0.700319
v 6.969767 4.699320 0.700458
v 6.969711 4.708294 0.700018
v 6.969621 4.708008 0.700273
v 6.969621 4.708008 0.700273
v 6.969327 4.708329 0.699821
v 6.969119 4.708046 0.700013
v 6.969119 4.708046 0.700013
v 6.969119 4.708046 0.700013
v 6.969233 4.708343 0.699556
v 6.968940 4.708080 0.699462
v 6.968940 4.708080 0.699462
v 6.969457 4.708340 0.699106
v 6.969187 4.708082 0.698955
v 6.969187 4.708082 0.698955
v 6.969728 4.708327 0.699024
v 6.969748 4.708043 0.698756
v 6.969748 4.708043 0.698756
v 6.970121 4.708292 0.699222
v 6.970271 4.708003 0.699016
v 6.970271 4.708003 0.699016
v 6.970216 4.708274 0.699489
v 6.970449 4.707985 0.699592
v 6.970449 4.707985 0.699592
v 6.969982 4.708278 0.699939
v 6.970181 4.707986 0.700096
v 6.970181 4.707986 0.700096
vn -0.4017 0.9155 0.0233
vn -0.3008 0.8966 0.3250
vn 0.0329 0.8661 0.4988
vn 0.3362 0.8515 0.4023
vn -0.2223 0.9092 -0.3522
vn 0.5366 0.8433 0.0293
vn 0.0837 0.8903 -0.4477
vn 0.4338 0.8583 -0.2741
vn 0.0682 -0.0419 -0.9968
vn 0.0889 0.3184 -0.9438
vn 0.7305 0.2787 -0.6234
vn 0.7571 -0.0623 -0.6503
vn 0.9515 0.2925 0.0951
vn 0.9956 -0.0442 0.0825
vn 0.6279 0.3228 0.7082
vn 0.6464 0.0010 0.7630
vn -0.0779 0.0461 0.9959
vn -0.0659 0.3565 0.9320
vn -0.6848 0.3929 0.6137
vn -0.7569 0.0657 0.6502
vn 0.6576 0.0015 0.7533
vn 0.6522 0.0016 0.7580
vn -0.0752 -0.0299 0.9967
vn -0.0700 -0.0248 0.9972
vn 0.9972 0.0266 0.0705
vn 0.9967 0.0317 0.0751
vn 0.7589 0.0363 -0.6501
vn 0.7582 0.0436 -0.6506
vn 0.0828 0.0251 -0.9963
vn 0.0775 0.0299 -0.9965
vn -0.6445 -0.0009 -0.7646
vn -0.6496 -0.0011 -0.7603
vn -0.9963 -0.0265 -0.0820
vn -0.9965 -0.0317 -0.0778
vn -0.7583 -0.0365 0.6509
vn -0.7583 -0.0437 0.6505
vn 0.6429 0.0001 0.7659
vn -0.0838 -0.0001 0.9965
vn 0.9964 -0.0001 0.0843
vn 0.7587 -0.0001 -0.6514
vn 0.0677 -0.0000 -0.9977
vn -0.6595 -0.0000 -0.7517
vn -0.6567 0.0045 -0.7541
vn -0.9976 -0.0001 -0.0691
vn -0.9962 0.0487 -0.0728
vn -0.7591 -0.0001 0.6510
vn -0.6848 0.3929 0.6138
vn -0.9067 0.4149 -0.0760
vn -0.6068 0.3884 -0.6935
vn -0.6848 0.3930 0.6137
vn 0.0888 0.3183 -0.9438
vn 0.9516 0.2923 0.0950
vn 0.6279 0.3227 0.7082
vt 0.010393 0.006753
vt 0.010253 0.008607
vt 0.008215 0.010515
vt 0.006348 0.010553
vt 0.008159 0.004357
vt 0.004083 0.008148
vt 0.006303 0.004353
vt 0.004229 0.006288
vt 0.660109 0.045997
vt 0.630967 0.045919
vt 0.631126 0.042013
vt 0.660216 0.042022
vt 0.631362 0.037992
vt 0.660402 0.038053
vt 0.631612 0.034181
vt 0.660558 0.034084
vt 0.660584 0.030111
vt 0.631712 0.030257
vt 0.631532 0.026470
vt 0.660456 0.026130
vt 0.795973 0.034173
vt 0.719134 0.034139
vt 0.718990 0.030167
vt 0.795839 0.030195
vt 0.796104 0.038153
vt 0.719279 0.038107
vt 0.796152 0.042135
vt 0.719336 0.042075
vt 0.796089 0.046118
vt 0.719263 0.046043
vt 0.795948 0.050097
vt 0.719109 0.050011
vt 0.795811 0.054075
vt 0.718962 0.053984
vt 0.795755 0.058055
vt 0.718912 0.057963
vt 0.718936 0.026189
vt 0.795780 0.026215
vt 0.689739 0.034037
vt 0.689749 0.030039
vt 0.689730 0.038043
vt 0.689723 0.042052
vt 0.689726 0.046059
vt 0.689728 0.050063
vt 0.660139 0.049970
vt 0.689730 0.054062
vt 0.660274 0.053943
vt 0.689731 0.058055
vt 0.660419 0.057920
vt 0.689757 0.026046
vt 0.631493 0.057543
vt 0.631210 0.053665
vt 0.630973 0.049900
vt 0.012592 0.009836
vt 0.009512 0.012877
vt 0.012672 0.005456
vt 0.009892 0.002281
vt 0.005342 0.001953
vt 0.001953 0.004929
vt 0.001953 0.009636
vt 0.005016 0.012678
s 1
usemtl Candle_2.002
f 44/1/1 40/2/2 37/3/3
f 44/1/1 37/3/3 59/4/4
f 47/5/5 44/1/1 59/4/4
f 47/5/5 59/4/4 56/6/6
f 50/7/7 47/5/5 56/6/6
f 50/7/7 56/6/6 53/8/8
f 29/9/9 52/10/10 55/11/11
f 29/9/9 55/11/11 31/12/12
f 31/12/12 55/11/11 58/13/13
f 31/12/12 58/13/13 33/14/14
f 33/14/14 58/13/13 61/15/15
f 33/14/14 61/15/15 35/16/16
f 20/17/17 39/18/18 43/19/19
f 20/17/17 43/19/19 22/20/20
f 9/21/21 18/22/22 10/23/23
f 9/21/21 10/23/23 1/24/24
f 8/25/25 17/26/26 18/22/22
f 8/25/25 18/22/22 9/21/21
f 7/27/27 16/28/28 17/26/26
f 7/27/27 17/26/26 8/25/25
f 6/29/29 15/30/30 16/28/28
f 6/29/29 16/28/28 7/27/27
f 5/31/31 14/32/32 15/30/30
f 5/31/31 15/30/30 6/29/29
f 4/33/33 13/34/34 14/32/32
f 4/33/33 14/32/32 5/31/31
f 2/35/35 11/36/36 13/34/34
f 2/35/35 13/34/34 4/33/33
f 1/24/24 10/23/23 12/37/36
f 1/24/24 12/37/36 3/38/35
f 18/22/22 36/39/37 19/40/38
f 18/22/22 19/40/38 10/23/23
f 36/39/37 35/16/16 20/17/17
f 36/39/37 20/17/17 19/40/38
f 17/26/26 34/41/39 36/39/37
f 17/26/26 36/39/37 18/22/22
f 34/41/39 33/14/14 35/16/16
f 34/41/39 35/16/16 36/39/37
f 16/28/28 32/42/40 34/41/39
f 16/28/28 34/41/39 17/26/26
f 32/42/40 31/12/12 33/14/14
f 32/42/40 33/14/14 34/41/39
f 15/30/30 30/43/41 32/42/40
f 15/30/30 32/42/40 16/28/28
f 30/43/41 29/9/9 31/12/12
f 30/43/41 31/12/12 32/42/40
f 14/32/32 28/44/42 30/43/41
f 14/32/32 30/43/41 15/30/30
f 28/44/42 27/45/43 29/9/9
f 28/44/42 29/9/9 30/43/41
f 13/34/34 26/46/44 28/44/42
f 13/34/34 28/44/42 14/32/32
f 26/46/44 25/47/45 27/45/43
f 26/46/44 27/45/43 28/44/42
f 11/36/36 23/48/46 26/46/44
f 11/36/36 26/46/44 13/34/34
f 23/48/46 21/49/20 25/47/45
f 23/48/46 25/47/45 26/46/44
f 10/23/23 19/40/38 24/50/46
f 10/23/23 24/50/46 12/37/36
f 19/40/38 20/17/17 22/20/20
f 19/40/38 22/20/20 24/50/46
f 21/49/20 42/51/47 46/52/48
f 21/49/20 46/52/48 25/47/45
f 25/47/45 46/52/48 49/53/49
f 25/47/45 49/53/49 27/45/43
f 27/45/43 49/53/49 52/10/10
f 27/45/43 52/10/10 29/9/9
f 37/3/3 40/2/2 41/54/50
f 37/3/3 41/54/50 38/55/18
f 40/2/2 44/1/1 45/56/48
f 40/2/2 45/56/48 41/54/50
f 44/1/1 47/5/5 48/57/49
f 44/1/1 48/57/49 45/56/48
f 47/5/5 50/7/7 51/58/51
f 47/5/5 51/58/51 48/57/49
f 50/7/7 53/8/8 54/59/11
f 50/7/7 54/59/11 51/58/51
f 53/8/8 56/6/6 57/60/52
f 53/8/8 57/60/52 54/59/11
f 56/6/6 59/4/4 60/61/53
f 56/6/6 60/61/53 57/60/52
f 59/4/4 37/3/3 38/55/18
f 59/4/4 38/55/18 60/61/53
f 35/16/16 61/15/15 39/18/18
f 35/16/16 39/18/18 20/17/17
