# Blender 3.6.1
# www.blender.org
mtllib candle_wick_3.mtl
o candle_wick_2.002
v 6.625731 4.835405 0.257466
v 6.624709 4.835406 0.257631
v 6.624709 4.835406 0.257631
v 6.623870 4.835405 0.257025
v 6.623705 4.835405 0.256003
v 6.624311 4.835405 0.255164
v 6.625334 4.835405 0.254999
v 6.626173 4.835405 0.255605
v 6.626337 4.835405 0.256627
v 6.625540 4.855371 0.258170
v 6.624518 4.855371 0.258334
v 6.624518 4.855371 0.258334
v 6.623679 4.855371 0.257728
v 6.623514 4.855370 0.256706
v 6.624120 4.855369 0.255867
v 6.625142 4.855368 0.255703
v 6.625981 4.855369 0.256309
v 6.626146 4.855370 0.257331
v 6.625440 4.863005 0.258543
v 6.625539 4.870634 0.258170
v 6.624518 4.870685 0.258335
v 6.624518 4.870685 0.258335
v 6.624416 4.863005 0.258709
v 6.624416 4.863005 0.258709
v 6.623680 4.870710 0.257727
v 6.623576 4.863005 0.258101
v 6.623516 4.870694 0.256705
v 6.623413 4.863005 0.257078
v 6.624121 4.870646 0.255867
v 6.624021 4.863005 0.256241
v 6.625142 4.870595 0.255702
v 6.625041 4.863005 0.256077
v 6.625981 4.870570 0.256309
v 6.625878 4.863005 0.256681
v 6.626144 4.870586 0.257332
v 6.626045 4.863005 0.257702
v 6.625516 4.878629 0.257141
v 6.625649 4.878131 0.257592
v 6.625649 4.878131 0.257592
v 6.624774 4.878689 0.257256
v 6.624677 4.878197 0.257741
v 6.624677 4.878197 0.257741
v 6.624677 4.878197 0.257741
v 6.624369 4.878713 0.256980
v 6.623860 4.878256 0.257148
v 6.623860 4.878256 0.257148
v 6.624223 4.878707 0.256117
v 6.623689 4.878259 0.256181
v 6.623689 4.878259 0.256181
v 6.624521 4.878685 0.255725
v 6.624274 4.878192 0.255326
v 6.624274 4.878192 0.255326
v 6.625278 4.878624 0.255600
v 6.625277 4.878121 0.255157
v 6.625277 4.878121 0.255157
v 6.625684 4.878593 0.255879
v 6.626119 4.878090 0.255784
v 6.626119 4.878090 0.255784
v 6.625815 4.878601 0.256752
v 6.626256 4.878092 0.256771
v 6.626256 4.878092 0.256771
vn -0.3111 0.9155 0.2552
vn -0.0520 0.8966 0.4399
vn 0.3200 0.8661 0.3841
vn 0.5086 0.8515 0.1275
vn -0.3868 0.9092 -0.1539
vn 0.4512 0.8433 -0.2919
vn -0.1956 0.8904 -0.4110
vn 0.1896 0.8583 -0.4768
vn -0.5313 -0.0419 -0.8462
vn -0.4834 0.3184 -0.8155
vn 0.2240 0.2787 -0.9339
vn 0.2299 -0.0623 -0.9712
vn 0.8254 0.2925 -0.4829
vn 0.8536 -0.0442 -0.5190
vn 0.9244 0.3228 0.2033
vn 0.9716 0.0010 0.2367
vn 0.5230 0.0461 0.8511
vn 0.4950 0.3565 0.7924
vn -0.1927 0.3929 0.8992
vn -0.2295 0.0657 0.9711
vn 0.9749 0.0014 0.2225
vn 0.9734 0.0015 0.2290
vn 0.5258 -0.0299 0.8501
vn 0.5304 -0.0248 0.8474
vn 0.8478 0.0268 -0.5296
vn 0.8502 0.0318 -0.5256
vn 0.2308 0.0365 -0.9723
vn 0.2310 0.0434 -0.9720
vn -0.5192 0.0251 -0.8543
vn -0.5234 0.0299 -0.8516
vn -0.9709 -0.0009 -0.2393
vn -0.9725 -0.0012 -0.2329
vn -0.8541 -0.0264 0.5195
vn -0.8514 -0.0318 0.5235
vn -0.2303 -0.0365 0.9724
vn -0.2305 -0.0437 0.9721
vn 0.9704 -0.0000 0.2416
vn 0.5185 -0.0000 0.8551
vn 0.8549 -0.0000 -0.5188
vn 0.2304 -0.0002 -0.9731
vn -0.5322 -0.0000 -0.8466
vn -0.9754 -0.0000 -0.2205
vn -0.9747 0.0045 -0.2234
vn -0.8476 -0.0001 0.5307
vn -0.8484 0.0487 0.5271
vn -0.2308 -0.0001 0.9730
vn -0.7779 0.4149 0.4720
vn -0.8987 0.3884 -0.2038
vn 0.4949 0.3568 0.7923
vn -0.7779 0.4149 0.4719
vn -0.4835 0.3182 -0.8155
vn 0.8253 0.2924 -0.4830
vn 0.9244 0.3229 0.2032
vt 0.010393 0.006753
vt 0.010253 0.008607
vt 0.008215 0.010515
vt 0.006348 0.010553
vt 0.008159 0.004357
vt 0.004083 0.008148
vt 0.006303 0.004353
vt 0.004229 0.006288
vt 0.660109 0.045997
vt 0.630967 0.045919
vt 0.631126 0.042013
vt 0.660216 0.042022
vt 0.631362 0.037992
vt 0.660402 0.038053
vt 0.631612 0.034181
vt 0.660558 0.034084
vt 0.660584 0.030111
vt 0.631712 0.030257
vt 0.631532 0.026470
vt 0.660456 0.026130
vt 0.795973 0.034173
vt 0.719134 0.034139
vt 0.718990 0.030167
vt 0.795839 0.030195
vt 0.796104 0.038153
vt 0.719279 0.038107
vt 0.796152 0.042135
vt 0.719336 0.042075
vt 0.796089 0.046118
vt 0.719263 0.046043
vt 0.795948 0.050097
vt 0.719109 0.050011
vt 0.795811 0.054075
vt 0.718962 0.053984
vt 0.795755 0.058055
vt 0.718912 0.057963
vt 0.718936 0.026189
vt 0.795780 0.026215
vt 0.689739 0.034037
vt 0.689749 0.030039
vt 0.689730 0.038043
vt 0.689723 0.042052
vt 0.689726 0.046059
vt 0.689728 0.050063
vt 0.660139 0.049970
vt 0.689730 0.054062
vt 0.660274 0.053943
vt 0.689731 0.058055
vt 0.660419 0.057920
vt 0.689757 0.026046
vt 0.631493 0.057543
vt 0.631210 0.053665
vt 0.630973 0.049900
vt 0.012592 0.009836
vt 0.009512 0.012877
vt 0.012672 0.005456
vt 0.009892 0.002281
vt 0.005342 0.001953
vt 0.001953 0.004929
vt 0.001953 0.009636
vt 0.005016 0.012678
s 1
usemtl Candle_2.009
f 44/1/1 40/2/2 37/3/3
f 44/1/1 37/3/3 59/4/4
f 47/5/5 44/1/1 59/4/4
f 47/5/5 59/4/4 56/6/6
f 50/7/7 47/5/5 56/6/6
f 50/7/7 56/6/6 53/8/8
f 29/9/9 52/10/10 55/11/11
f 29/9/9 55/11/11 31/12/12
f 31/12/12 55/11/11 58/13/13
f 31/12/12 58/13/13 33/14/14
f 33/14/14 58/13/13 61/15/15
f 33/14/14 61/15/15 35/16/16
f 20/17/17 39/18/18 43/19/19
f 20/17/17 43/19/19 22/20/20
f 9/21/21 18/22/22 10/23/23
f 9/21/21 10/23/23 1/24/24
f 8/25/25 17/26/26 18/22/22
f 8/25/25 18/22/22 9/21/21
f 7/27/27 16/28/28 17/26/26
f 7/27/27 17/26/26 8/25/25
f 6/29/29 15/30/30 16/28/28
f 6/29/29 16/28/28 7/27/27
f 5/31/31 14/32/32 15/30/30
f 5/31/31 15/30/30 6/29/29
f 4/33/33 13/34/34 14/32/32
f 4/33/33 14/32/32 5/31/31
f 2/35/35 11/36/36 13/34/34
f 2/35/35 13/34/34 4/33/33
f 1/24/24 10/23/23 12/37/36
f 1/24/24 12/37/36 3/38/35
f 18/22/22 36/39/37 19/40/38
f 18/22/22 19/40/38 10/23/23
f 36/39/37 35/16/16 20/17/17
f 36/39/37 20/17/17 19/40/38
f 17/26/26 34/41/39 36/39/37
f 17/26/26 36/39/37 18/22/22
f 34/41/39 33/14/14 35/16/16
f 34/41/39 35/16/16 36/39/37
f 16/28/28 32/42/40 34/41/39
f 16/28/28 34/41/39 17/26/26
f 32/42/40 31/12/12 33/14/14
f 32/42/40 33/14/14 34/41/39
f 15/30/30 30/43/41 32/42/40
f 15/30/30 32/42/40 16/28/28
f 30/43/41 29/9/9 31/12/12
f 30/43/41 31/12/12 32/42/40
f 14/32/32 28/44/42 30/43/41
f 14/32/32 30/43/41 15/30/30
f 28/44/42 27/45/43 29/9/9
f 28/44/42 29/9/9 30/43/41
f 13/34/34 26/46/44 28/44/42
f 13/34/34 28/44/42 14/32/32
f 26/46/44 25/47/45 27/45/43
f 26/46/44 27/45/43 28/44/42
f 11/36/36 23/48/46 26/46/44
f 11/36/36 26/46/44 13/34/34
f 23/48/46 21/49/20 25/47/45
f 23/48/46 25/47/45 26/46/44
f 10/23/23 19/40/38 24/50/46
f 10/23/23 24/50/46 12/37/36
f 19/40/38 20/17/17 22/20/20
f 19/40/38 22/20/20 24/50/46
f 21/49/20 42/51/19 46/52/47
f 21/49/20 46/52/47 25/47/45
f 25/47/45 46/52/47 49/53/48
f 25/47/45 49/53/48 27/45/43
f 27/45/43 49/53/48 52/10/10
f 27/45/43 52/10/10 29/9/9
f 37/3/3 40/2/2 41/54/19
f 37/3/3 41/54/19 38/55/49
f 40/2/2 44/1/1 45/56/50
f 40/2/2 45/56/50 41/54/19
f 44/1/1 47/5/5 48/57/48
f 44/1/1 48/57/48 45/56/50
f 47/5/5 50/7/7 51/58/51
f 47/5/5 51/58/51 48/57/48
f 50/7/7 53/8/8 54/59/11
f 50/7/7 54/59/11 51/58/51
f 53/8/8 56/6/6 57/60/52
f 53/8/8 57/60/52 54/59/11
f 56/6/6 59/4/4 60/61/53
f 56/6/6 60/61/53 57/60/52
f 59/4/4 37/3/3 38/55/49
f 59/4/4 38/55/49 60/61/53
f 35/16/16 61/15/15 39/18/18
f 35/16/16 39/18/18 20/17/17
