# Blender 3.6.1
# www.blender.org
mtllib candle_wick_2.mtl
o candle_wick_2.001
v 6.991018 4.843118 1.939407
v 6.992042 4.843119 1.939222
v 6.992042 4.843119 1.939222
v 6.992898 4.843118 1.939814
v 6.993083 4.843118 1.940838
v 6.992490 4.843118 1.941694
v 6.991466 4.843118 1.941879
v 6.990611 4.843118 1.941286
v 6.990426 4.843118 1.940262
v 6.991197 4.863190 1.938697
v 6.992220 4.863190 1.938511
v 6.992220 4.863190 1.938511
v 6.993075 4.863190 1.939104
v 6.993261 4.863189 1.940128
v 6.992669 4.863188 1.940983
v 6.991644 4.863187 1.941168
v 6.990789 4.863188 1.940576
v 6.990603 4.863189 1.939552
v 6.991289 4.870864 1.938319
v 6.991197 4.878534 1.938696
v 6.992220 4.878586 1.938511
v 6.992220 4.878586 1.938511
v 6.992315 4.870864 1.938132
v 6.992315 4.870864 1.938132
v 6.993074 4.878611 1.939104
v 6.993172 4.870864 1.938727
v 6.993260 4.878595 1.940128
v 6.993356 4.870864 1.939752
v 6.992668 4.878547 1.940983
v 6.992761 4.870864 1.940605
v 6.991645 4.878496 1.941169
v 6.991739 4.870864 1.940790
v 6.990790 4.878470 1.940575
v 6.990886 4.870864 1.940199
v 6.990605 4.878487 1.939551
v 6.990698 4.870864 1.939176
v 6.991241 4.886572 1.939730
v 6.991098 4.886071 1.939279
v 6.991098 4.886071 1.939279
v 6.991984 4.886632 1.939600
v 6.992072 4.886137 1.939110
v 6.992072 4.886137 1.939110
v 6.992072 4.886137 1.939110
v 6.992397 4.886657 1.939869
v 6.992905 4.886197 1.939690
v 6.992905 4.886197 1.939690
v 6.992560 4.886651 1.940734
v 6.993096 4.886200 1.940659
v 6.993096 4.886200 1.940659
v 6.992269 4.886629 1.941134
v 6.992525 4.886132 1.941530
v 6.992525 4.886132 1.941530
v 6.991510 4.886567 1.941274
v 6.991520 4.886062 1.941720
v 6.991520 4.886062 1.941720
v 6.991097 4.886536 1.941002
v 6.990662 4.886031 1.941105
v 6.990662 4.886031 1.941105
v 6.990947 4.886543 1.940127
v 6.990503 4.886032 1.940117
v 6.990503 4.886032 1.940117
vn 0.3061 0.9154 -0.2613
vn 0.0434 0.8966 -0.4408
vn -0.3275 0.8661 -0.3777
vn -0.5111 0.8515 -0.1175
vn 0.3898 0.9092 0.1463
vn -0.4454 0.8434 0.3006
vn 0.2036 0.8904 0.4071
vn -0.1802 0.8583 0.4804
vn 0.5477 -0.0419 0.8356
vn 0.4992 0.3184 0.8059
vn -0.2057 0.2787 0.9381
vn -0.2109 -0.0623 0.9755
vn -0.8158 0.2925 0.4990
vn -0.8433 -0.0442 0.5356
vn -0.9282 0.3228 -0.1852
vn -0.9760 0.0010 -0.2178
vn -0.5396 0.0461 -0.8407
vn -0.5104 0.3565 -0.7826
vn 0.1751 0.3929 -0.9028
vn 0.2105 0.0657 -0.9754
vn -0.9791 0.0015 -0.2031
vn -0.9776 0.0015 -0.2105
vn -0.5421 -0.0299 -0.8398
vn -0.5465 -0.0248 -0.8371
vn -0.8372 0.0269 0.5462
vn -0.8398 0.0318 0.5420
vn -0.2121 0.0364 0.9766
vn -0.2115 0.0435 0.9764
vn 0.5356 0.0251 0.8441
vn 0.5401 0.0299 0.8411
vn 0.9754 -0.0008 0.2206
vn 0.9768 -0.0012 0.2140
vn 0.8437 -0.0265 -0.5362
vn 0.8409 -0.0318 -0.5402
vn 0.2113 -0.0365 -0.9767
vn 0.2115 -0.0437 -0.9764
vn 0.2112 -0.0365 -0.9768
vn -0.9750 -0.0000 -0.2224
vn -0.5352 -0.0000 -0.8447
vn -0.8447 -0.0000 0.5352
vn -0.2116 -0.0002 0.9774
vn 0.5485 -0.0000 0.8361
vn 0.9796 -0.0000 0.2010
vn 0.9789 0.0045 0.2043
vn 0.8369 -0.0002 -0.5473
vn 0.8379 0.0487 -0.5436
vn 0.2118 -0.0001 -0.9773
vn 0.1750 0.3929 -0.9028
vn 0.7685 0.4149 -0.4871
vn 0.9025 0.3884 0.1862
vn 0.1751 0.3929 -0.9027
vn -0.5103 0.3568 -0.7825
vn 0.7686 0.4149 -0.4870
vn 0.4993 0.3182 0.8059
vn -0.8157 0.2924 0.4991
vn -0.9282 0.3229 -0.1851
vt 0.010393 0.006753
vt 0.010253 0.008607
vt 0.008215 0.010515
vt 0.006348 0.010553
vt 0.008159 0.004357
vt 0.004083 0.008148
vt 0.006303 0.004353
vt 0.004229 0.006288
vt 0.660109 0.045997
vt 0.630967 0.045919
vt 0.631126 0.042013
vt 0.660216 0.042022
vt 0.631362 0.037992
vt 0.660402 0.038053
vt 0.631612 0.034181
vt 0.660558 0.034084
vt 0.660584 0.030111
vt 0.631712 0.030257
vt 0.631532 0.026470
vt 0.660456 0.026130
vt 0.795973 0.034173
vt 0.719134 0.034139
vt 0.718990 0.030167
vt 0.795839 0.030195
vt 0.796104 0.038153
vt 0.719279 0.038107
vt 0.796152 0.042135
vt 0.719336 0.042075
vt 0.796089 0.046118
vt 0.719263 0.046043
vt 0.795948 0.050097
vt 0.719109 0.050011
vt 0.795811 0.054075
vt 0.718962 0.053984
vt 0.795755 0.058055
vt 0.718912 0.057963
vt 0.718936 0.026189
vt 0.795780 0.026215
vt 0.689739 0.034037
vt 0.689749 0.030039
vt 0.689730 0.038043
vt 0.689723 0.042052
vt 0.689726 0.046059
vt 0.689728 0.050063
vt 0.660139 0.049970
vt 0.689730 0.054062
vt 0.660274 0.053943
vt 0.689731 0.058055
vt 0.660419 0.057920
vt 0.689757 0.026046
vt 0.631493 0.057543
vt 0.631210 0.053665
vt 0.630973 0.049900
vt 0.012592 0.009836
vt 0.009512 0.012877
vt 0.012672 0.005456
vt 0.009892 0.002281
vt 0.005342 0.001953
vt 0.001953 0.004929
vt 0.001953 0.009636
vt 0.005016 0.012678
s 1
usemtl Candle_2.007
f 44/1/1 40/2/2 37/3/3
f 44/1/1 37/3/3 59/4/4
f 47/5/5 44/1/1 59/4/4
f 47/5/5 59/4/4 56/6/6
f 50/7/7 47/5/5 56/6/6
f 50/7/7 56/6/6 53/8/8
f 29/9/9 52/10/10 55/11/11
f 29/9/9 55/11/11 31/12/12
f 31/12/12 55/11/11 58/13/13
f 31/12/12 58/13/13 33/14/14
f 33/14/14 58/13/13 61/15/15
f 33/14/14 61/15/15 35/16/16
f 20/17/17 39/18/18 43/19/19
f 20/17/17 43/19/19 22/20/20
f 9/21/21 18/22/22 10/23/23
f 9/21/21 10/23/23 1/24/24
f 8/25/25 17/26/26 18/22/22
f 8/25/25 18/22/22 9/21/21
f 7/27/27 16/28/28 17/26/26
f 7/27/27 17/26/26 8/25/25
f 6/29/29 15/30/30 16/28/28
f 6/29/29 16/28/28 7/27/27
f 5/31/31 14/32/32 15/30/30
f 5/31/31 15/30/30 6/29/29
f 4/33/33 13/34/34 14/32/32
f 4/33/33 14/32/32 5/31/31
f 2/35/35 11/36/36 13/34/34
f 2/35/35 13/34/34 4/33/33
f 1/24/24 10/23/23 12/37/36
f 1/24/24 12/37/36 3/38/37
f 18/22/22 36/39/38 19/40/39
f 18/22/22 19/40/39 10/23/23
f 36/39/38 35/16/16 20/17/17
f 36/39/38 20/17/17 19/40/39
f 17/26/26 34/41/40 36/39/38
f 17/26/26 36/39/38 18/22/22
f 34/41/40 33/14/14 35/16/16
f 34/41/40 35/16/16 36/39/38
f 16/28/28 32/42/41 34/41/40
f 16/28/28 34/41/40 17/26/26
f 32/42/41 31/12/12 33/14/14
f 32/42/41 33/14/14 34/41/40
f 15/30/30 30/43/42 32/42/41
f 15/30/30 32/42/41 16/28/28
f 30/43/42 29/9/9 31/12/12
f 30/43/42 31/12/12 32/42/41
f 14/32/32 28/44/43 30/43/42
f 14/32/32 30/43/42 15/30/30
f 28/44/43 27/45/44 29/9/9
f 28/44/43 29/9/9 30/43/42
f 13/34/34 26/46/45 28/44/43
f 13/34/34 28/44/43 14/32/32
f 26/46/45 25/47/46 27/45/44
f 26/46/45 27/45/44 28/44/43
f 11/36/36 23/48/47 26/46/45
f 11/36/36 26/46/45 13/34/34
f 23/48/47 21/49/20 25/47/46
f 23/48/47 25/47/46 26/46/45
f 10/23/23 19/40/39 24/50/47
f 10/23/23 24/50/47 12/37/36
f 19/40/39 20/17/17 22/20/20
f 19/40/39 22/20/20 24/50/47
f 21/49/20 42/51/48 46/52/49
f 21/49/20 46/52/49 25/47/46
f 25/47/46 46/52/49 49/53/50
f 25/47/46 49/53/50 27/45/44
f 27/45/44 49/53/50 52/10/10
f 27/45/44 52/10/10 29/9/9
f 37/3/3 40/2/2 41/54/51
f 37/3/3 41/54/51 38/55/52
f 40/2/2 44/1/1 45/56/53
f 40/2/2 45/56/53 41/54/51
f 44/1/1 47/5/5 48/57/50
f 44/1/1 48/57/50 45/56/53
f 47/5/5 50/7/7 51/58/54
f 47/5/5 51/58/54 48/57/50
f 50/7/7 53/8/8 54/59/11
f 50/7/7 54/59/11 51/58/54
f 53/8/8 56/6/6 57/60/55
f 53/8/8 57/60/55 54/59/11
f 56/6/6 59/4/4 60/61/56
f 56/6/6 60/61/56 57/60/55
f 59/4/4 37/3/3 38/55/52
f 59/4/4 38/55/52 60/61/56
f 35/16/16 61/15/15 39/18/18
f 35/16/16 39/18/18 20/17/17
