# Blender 3.6.1
# www.blender.org
mtllib candle_wick_4.mtl
o candle_wick_2.003
v 6.083158 4.842998 1.566309
v 6.083849 4.842999 1.565530
v 6.083849 4.842999 1.565530
v 6.084888 4.842998 1.565468
v 6.085666 4.842998 1.566158
v 6.085729 4.842997 1.567196
v 6.085038 4.842997 1.567975
v 6.083999 4.842997 1.568038
v 6.083221 4.842998 1.567347
v 6.082860 4.863068 1.565640
v 6.083549 4.863068 1.564861
v 6.083549 4.863068 1.564861
v 6.084588 4.863068 1.564799
v 6.085367 4.863067 1.565489
v 6.085430 4.863066 1.566528
v 6.084739 4.863065 1.567306
v 6.083700 4.863066 1.567369
v 6.082922 4.863067 1.566678
v 6.082699 4.870742 1.565286
v 6.082860 4.878411 1.565640
v 6.083549 4.878463 1.564861
v 6.083549 4.878463 1.564861
v 6.083390 4.870742 1.564505
v 6.083390 4.870742 1.564505
v 6.084588 4.878488 1.564800
v 6.084431 4.870742 1.564443
v 6.085366 4.878472 1.565491
v 6.085209 4.870742 1.565136
v 6.085429 4.878424 1.566528
v 6.085269 4.870742 1.566174
v 6.084739 4.878372 1.567306
v 6.084579 4.870742 1.566950
v 6.083701 4.878347 1.567368
v 6.083543 4.870742 1.567013
v 6.082922 4.878363 1.566677
v 6.082764 4.870742 1.566325
v 6.083533 4.886448 1.566425
v 6.083142 4.885947 1.566159
v 6.083142 4.885947 1.566159
v 6.084037 4.886508 1.565863
v 6.083804 4.886014 1.565424
v 6.083804 4.886014 1.565424
v 6.083804 4.886014 1.565424
v 6.084528 4.886533 1.565820
v 6.084816 4.886073 1.565365
v 6.084816 4.886073 1.565365
v 6.085191 4.886527 1.566399
v 6.085566 4.886076 1.566009
v 6.085566 4.886076 1.566009
v 6.085208 4.886505 1.566893
v 6.085654 4.886009 1.567046
v 6.085654 4.886009 1.567046
v 6.084699 4.886443 1.567472
v 6.084982 4.885938 1.567817
v 6.084982 4.885938 1.567817
v 6.084206 4.886412 1.567514
v 6.083928 4.885907 1.567864
v 6.083928 4.885907 1.567864
v 6.083548 4.886420 1.566919
v 6.083192 4.885909 1.567185
v 6.083192 4.885909 1.567185
vn 0.0792 0.9155 -0.3945
vn -0.2383 0.8966 -0.3734
vn -0.4909 0.8661 -0.0947
vn -0.4743 0.8515 0.2234
vn 0.3969 0.9092 -0.1259
vn -0.1644 0.8434 0.5116
vn 0.4116 0.8904 0.1942
vn 0.1552 0.8583 0.4891
vn 0.9470 -0.0419 0.3185
vn 0.8905 0.3184 0.3251
vn 0.4180 0.2787 0.8646
vn 0.4373 -0.0623 0.8972
vn -0.3330 0.2925 0.8964
vn -0.3320 -0.0442 0.9422
vn -0.8442 0.3228 0.4279
vn -0.9019 0.0010 0.4319
vn -0.9437 0.0461 -0.3274
vn -0.8849 0.3565 -0.2999
vn -0.4202 0.3929 -0.8180
vn -0.4372 0.0657 -0.8970
vn -0.8954 0.0015 0.4453
vn -0.8985 0.0015 0.4389
vn -0.9452 -0.0299 -0.3251
vn -0.9471 -0.0248 -0.3200
vn -0.3206 0.0268 0.9468
vn -0.3254 0.0318 0.9450
vn 0.4369 0.0364 0.8988
vn 0.4368 0.0435 0.8985
vn 0.9428 0.0251 0.3325
vn 0.9443 0.0300 0.3277
vn 0.9030 -0.0009 -0.4296
vn 0.9003 -0.0012 -0.4354
vn 0.3325 -0.0265 -0.9427
vn 0.3275 -0.0317 -0.9443
vn -0.4375 -0.0365 -0.8985
vn -0.4371 -0.0437 -0.8983
vn -0.9040 -0.0000 0.4276
vn -0.9428 -0.0000 -0.3333
vn -0.3335 -0.0000 0.9427
vn 0.4375 -0.0001 0.8992
vn 0.9480 -0.0000 0.3183
vn 0.8944 -0.0000 -0.4473
vn 0.8959 0.0045 -0.4443
vn 0.3195 -0.0001 -0.9476
vn 0.3228 0.0487 -0.9452
vn -0.4374 -0.0001 -0.8993
vn -0.4375 -0.0001 -0.8992
vn 0.3032 0.4149 -0.8579
vn 0.8246 0.3884 -0.4113
vn -0.8848 0.3568 -0.2999
vn 0.3033 0.4149 -0.8578
vn 0.8906 0.3182 0.3250
vn -0.3329 0.2924 0.8965
vn -0.8441 0.3229 0.4281
vt 0.010393 0.006753
vt 0.010253 0.008607
vt 0.008215 0.010515
vt 0.006348 0.010553
vt 0.008159 0.004357
vt 0.004083 0.008148
vt 0.006303 0.004353
vt 0.004229 0.006288
vt 0.660109 0.045997
vt 0.630967 0.045919
vt 0.631126 0.042013
vt 0.660216 0.042022
vt 0.631362 0.037992
vt 0.660402 0.038053
vt 0.631612 0.034181
vt 0.660558 0.034084
vt 0.660584 0.030111
vt 0.631712 0.030257
vt 0.631532 0.026470
vt 0.660456 0.026130
vt 0.795973 0.034173
vt 0.719134 0.034139
vt 0.718990 0.030167
vt 0.795839 0.030195
vt 0.796104 0.038153
vt 0.719279 0.038107
vt 0.796152 0.042135
vt 0.719336 0.042075
vt 0.796089 0.046118
vt 0.719263 0.046043
vt 0.795948 0.050097
vt 0.719109 0.050011
vt 0.795811 0.054075
vt 0.718962 0.053984
vt 0.795755 0.058055
vt 0.718912 0.057963
vt 0.718936 0.026189
vt 0.795780 0.026215
vt 0.689739 0.034037
vt 0.689749 0.030039
vt 0.689730 0.038043
vt 0.689723 0.042052
vt 0.689726 0.046059
vt 0.689728 0.050063
vt 0.660139 0.049970
vt 0.689730 0.054062
vt 0.660274 0.053943
vt 0.689731 0.058055
vt 0.660419 0.057920
vt 0.689757 0.026046
vt 0.631493 0.057543
vt 0.631210 0.053665
vt 0.630973 0.049900
vt 0.012592 0.009836
vt 0.009512 0.012877
vt 0.012672 0.005456
vt 0.009892 0.002281
vt 0.005342 0.001953
vt 0.001953 0.004929
vt 0.001953 0.009636
vt 0.005016 0.012678
s 1
usemtl Candle_2.011
f 44/1/1 40/2/2 37/3/3
f 44/1/1 37/3/3 59/4/4
f 47/5/5 44/1/1 59/4/4
f 47/5/5 59/4/4 56/6/6
f 50/7/7 47/5/5 56/6/6
f 50/7/7 56/6/6 53/8/8
f 29/9/9 52/10/10 55/11/11
f 29/9/9 55/11/11 31/12/12
f 31/12/12 55/11/11 58/13/13
f 31/12/12 58/13/13 33/14/14
f 33/14/14 58/13/13 61/15/15
f 33/14/14 61/15/15 35/16/16
f 20/17/17 39/18/18 43/19/19
f 20/17/17 43/19/19 22/20/20
f 9/21/21 18/22/22 10/23/23
f 9/21/21 10/23/23 1/24/24
f 8/25/25 17/26/26 18/22/22
f 8/25/25 18/22/22 9/21/21
f 7/27/27 16/28/28 17/26/26
f 7/27/27 17/26/26 8/25/25
f 6/29/29 15/30/30 16/28/28
f 6/29/29 16/28/28 7/27/27
f 5/31/31 14/32/32 15/30/30
f 5/31/31 15/30/30 6/29/29
f 4/33/33 13/34/34 14/32/32
f 4/33/33 14/32/32 5/31/31
f 2/35/35 11/36/36 13/34/34
f 2/35/35 13/34/34 4/33/33
f 1/24/24 10/23/23 12/37/36
f 1/24/24 12/37/36 3/38/35
f 18/22/22 36/39/37 19/40/38
f 18/22/22 19/40/38 10/23/23
f 36/39/37 35/16/16 20/17/17
f 36/39/37 20/17/17 19/40/38
f 17/26/26 34/41/39 36/39/37
f 17/26/26 36/39/37 18/22/22
f 34/41/39 33/14/14 35/16/16
f 34/41/39 35/16/16 36/39/37
f 16/28/28 32/42/40 34/41/39
f 16/28/28 34/41/39 17/26/26
f 32/42/40 31/12/12 33/14/14
f 32/42/40 33/14/14 34/41/39
f 15/30/30 30/43/41 32/42/40
f 15/30/30 32/42/40 16/28/28
f 30/43/41 29/9/9 31/12/12
f 30/43/41 31/12/12 32/42/40
f 14/32/32 28/44/42 30/43/41
f 14/32/32 30/43/41 15/30/30
f 28/44/42 27/45/43 29/9/9
f 28/44/42 29/9/9 30/43/41
f 13/34/34 26/46/44 28/44/42
f 13/34/34 28/44/42 14/32/32
f 26/46/44 25/47/45 27/45/43
f 26/46/44 27/45/43 28/44/42
f 11/36/36 23/48/46 26/46/44
f 11/36/36 26/46/44 13/34/34
f 23/48/46 21/49/20 25/47/45
f 23/48/46 25/47/45 26/46/44
f 10/23/23 19/40/38 24/50/47
f 10/23/23 24/50/47 12/37/36
f 19/40/38 20/17/17 22/20/20
f 19/40/38 22/20/20 24/50/47
f 21/49/20 42/51/19 46/52/48
f 21/49/20 46/52/48 25/47/45
f 25/47/45 46/52/48 49/53/49
f 25/47/45 49/53/49 27/45/43
f 27/45/43 49/53/49 52/10/10
f 27/45/43 52/10/10 29/9/9
f 37/3/3 40/2/2 41/54/19
f 37/3/3 41/54/19 38/55/50
f 40/2/2 44/1/1 45/56/51
f 40/2/2 45/56/51 41/54/19
f 44/1/1 47/5/5 48/57/49
f 44/1/1 48/57/49 45/56/51
f 47/5/5 50/7/7 51/58/52
f 47/5/5 51/58/52 48/57/49
f 50/7/7 53/8/8 54/59/11
f 50/7/7 54/59/11 51/58/52
f 53/8/8 56/6/6 57/60/53
f 53/8/8 57/60/53 54/59/11
f 56/6/6 59/4/4 60/61/54
f 56/6/6 60/61/54 57/60/53
f 59/4/4 37/3/3 38/55/50
f 59/4/4 38/55/50 60/61/54
f 35/16/16 61/15/15 39/18/18
f 35/16/16 39/18/18 20/17/17
