# Blender 3.6.1
# www.blender.org
mtllib Llosa.mtl
o Llosa
v 6.954928 4.204418 1.762945
v 6.973814 4.212869 1.770686
v 6.943747 4.212869 1.790224
v 6.962156 4.204574 1.765907
v 6.968283 4.205016 1.768418
v 6.968283 4.205016 1.768418
v 6.950649 4.204574 1.773384
v 6.957951 4.204761 1.776682
v 6.963159 4.205120 1.778183
v 6.963159 4.205120 1.778183
v 6.959376 4.205281 1.783164
v 6.959376 4.205281 1.783164
v 6.959376 4.205281 1.783164
v 6.968098 4.212869 1.780536
v 6.960376 4.212869 1.787708
v 6.960376 4.212869 1.787708
v 6.972377 4.208373 1.770096
v 6.966256 4.208355 1.780086
v 6.959984 4.208393 1.785927
v 6.959984 4.208393 1.785927
v 6.944598 4.208373 1.788147
v 6.947022 4.205016 1.782234
v 6.947022 4.205016 1.782234
v 6.951825 4.212869 1.791110
v 6.953033 4.208355 1.788678
v 6.954623 4.205120 1.783729
v 6.954623 4.205120 1.783729
v 6.973814 4.277612 1.770686
v 6.954928 4.286062 1.762945
v 6.943747 4.277612 1.790224
v 6.972377 4.282107 1.770096
v 6.968283 4.285464 1.768418
v 6.968283 4.285464 1.768418
v 6.968098 4.277612 1.780536
v 6.966256 4.282125 1.780086
v 6.963159 4.285361 1.778183
v 6.963159 4.285361 1.778183
v 6.959376 4.285200 1.783164
v 6.959376 4.285200 1.783164
v 6.959376 4.285200 1.783164
v 6.950649 4.285907 1.773384
v 6.947022 4.285464 1.782234
v 6.947022 4.285464 1.782234
v 6.962156 4.285907 1.765907
v 6.957951 4.285719 1.776682
v 6.954623 4.285361 1.783729
v 6.954623 4.285361 1.783729
v 6.951825 4.277612 1.791110
v 6.960376 4.277612 1.787708
v 6.960376 4.277612 1.787708
v 6.944598 4.282107 1.788147
v 6.953033 4.282125 1.788678
v 6.959984 4.282088 1.785927
v 6.959984 4.282088 1.785927
v 6.237267 4.204418 1.468780
v 6.226085 4.212869 1.496059
v 6.218381 4.212869 1.461038
v 6.232987 4.204574 1.479219
v 6.229360 4.205016 1.488069
v 6.229360 4.205016 1.488069
v 6.230039 4.204574 1.465817
v 6.225472 4.204761 1.476444
v 6.222896 4.205120 1.483799
v 6.222896 4.205120 1.483799
v 6.219907 4.205281 1.480060
v 6.219907 4.205281 1.480060
v 6.219907 4.205281 1.480060
v 6.219709 4.212869 1.491020
v 6.216006 4.212869 1.482595
v 6.226936 4.208373 1.493983
v 6.220555 4.208355 1.488440
v 6.217535 4.208393 1.481602
v 6.219818 4.208373 1.461628
v 6.223912 4.205016 1.463306
v 6.223912 4.205016 1.463306
v 6.215539 4.212869 1.472067
v 6.217167 4.208355 1.473040
v 6.220709 4.205120 1.473858
v 6.220709 4.205120 1.473858
v 6.237267 4.286062 1.468780
v 6.218381 4.277612 1.461038
v 6.226085 4.277612 1.496059
v 6.230039 4.285907 1.465817
v 6.223912 4.285464 1.463306
v 6.223912 4.285464 1.463306
v 6.232987 4.285907 1.479219
v 6.225472 4.285719 1.476444
v 6.220709 4.285361 1.473858
v 6.220709 4.285361 1.473858
v 6.219907 4.285200 1.480060
v 6.219907 4.285200 1.480060
v 6.219907 4.285200 1.480060
v 6.215539 4.277612 1.472067
v 6.216006 4.277612 1.482595
v 6.219818 4.282107 1.461628
v 6.217167 4.282125 1.473040
v 6.217535 4.282088 1.481602
v 6.226936 4.282107 1.493983
v 6.229360 4.285464 1.488069
v 6.229360 4.285464 1.488069
v 6.219709 4.277612 1.491020
v 6.220555 4.282125 1.488440
v 6.222896 4.285361 1.483799
v 6.222896 4.285361 1.483799
v 7.379833 4.204418 0.726322
v 7.391015 4.212869 0.699043
v 7.398719 4.212869 0.734064
v 7.384112 4.204574 0.715883
v 7.387740 4.205016 0.707033
v 7.387061 4.204574 0.729285
v 7.391628 4.204761 0.718658
v 7.394204 4.205120 0.711303
v 7.397192 4.205281 0.715042
v 7.397391 4.212869 0.704082
v 7.401094 4.212869 0.712507
v 7.390163 4.208373 0.701119
v 7.396545 4.208355 0.706662
v 7.399565 4.208393 0.713500
v 7.397282 4.208373 0.733474
v 7.393188 4.205016 0.731796
v 7.393188 4.205016 0.731796
v 7.401560 4.212869 0.723035
v 7.399933 4.208355 0.722062
v 7.396391 4.205120 0.721245
v 7.396391 4.205120 0.721245
v 7.379833 4.286062 0.726322
v 7.398719 4.277612 0.734064
v 7.391015 4.277612 0.699043
v 7.387061 4.285907 0.729285
v 7.393188 4.285464 0.731796
v 7.393188 4.285464 0.731796
v 7.384112 4.285907 0.715883
v 7.391628 4.285719 0.718658
v 7.396391 4.285361 0.721245
v 7.396391 4.285361 0.721245
v 7.397192 4.285200 0.715042
v 7.401560 4.277612 0.723035
v 7.401094 4.277612 0.712507
v 7.397282 4.282107 0.733474
v 7.399933 4.282125 0.722062
v 7.399565 4.282088 0.713500
v 7.399565 4.282088 0.713500
v 7.390163 4.282107 0.701119
v 7.387740 4.285464 0.707033
v 7.397391 4.277612 0.704082
v 7.396545 4.282125 0.706662
v 7.394204 4.285361 0.711303
v 6.662171 4.204418 0.432158
v 6.643285 4.212869 0.424416
v 6.673353 4.212869 0.404878
v 6.654944 4.204574 0.429195
v 6.648817 4.205016 0.426684
v 6.648817 4.205016 0.426684
v 6.666451 4.204574 0.421718
v 6.659149 4.204761 0.418420
v 6.653941 4.205120 0.416919
v 6.653941 4.205120 0.416919
v 6.657723 4.205281 0.411938
v 6.649002 4.212869 0.414566
v 6.656723 4.212869 0.407394
v 6.644723 4.208373 0.425006
v 6.650844 4.208355 0.415016
v 6.657115 4.208393 0.409175
v 6.672502 4.208373 0.406955
v 6.670078 4.205016 0.412868
v 6.665275 4.212869 0.403992
v 6.664066 4.208355 0.406424
v 6.662477 4.205120 0.411373
v 6.662171 4.286062 0.432158
v 6.673353 4.277612 0.404878
v 6.643285 4.277612 0.424416
v 6.666451 4.285907 0.421718
v 6.670078 4.285464 0.412868
v 6.654944 4.285907 0.429195
v 6.659149 4.285719 0.418420
v 6.662477 4.285361 0.411373
v 6.657723 4.285200 0.411938
v 6.665275 4.277612 0.403992
v 6.656723 4.277612 0.407394
v 6.672502 4.282107 0.406955
v 6.664066 4.282125 0.406424
v 6.657115 4.282088 0.409175
v 6.644723 4.282107 0.425006
v 6.648817 4.285464 0.426684
v 6.648817 4.285464 0.426684
v 6.649002 4.277612 0.414566
v 6.650844 4.282125 0.415016
v 6.653941 4.285361 0.416919
v 6.653941 4.285361 0.416919
vn 0.9370 -0.1690 0.3056
vn 0.9370 0.1690 0.3056
vn 0.8819 0.1689 0.4401
vn 0.8820 -0.1690 0.4400
vn 0.2271 -0.2384 -0.9442
vn 0.2270 0.2383 -0.9443
vn 0.5010 0.2384 -0.8320
vn 0.5010 -0.2383 -0.8320
vn -0.0067 0.9999 -0.0105
vn -0.0122 0.9999 0.0028
vn 0.0067 0.9999 0.0105
vn 0.0122 0.9999 -0.0028
vn -0.2271 -0.2384 0.9442
vn -0.2270 0.2383 0.9443
vn -0.5010 0.2384 0.8320
vn -0.5010 -0.2383 0.8320
vn -0.9370 -0.1690 -0.3056
vn -0.9370 0.1690 -0.3056
vn -0.8819 0.1689 -0.4401
vn -0.8820 -0.1690 -0.4400
vn 0.0068 -0.9999 0.0106
vn 0.0356 -0.9991 0.0224
vn 0.0280 -0.9987 0.0431
vn -0.0013 -0.9995 0.0306
vn 0.1411 -0.9874 0.0718
vn 0.1294 -0.9859 0.1062
vn 0.0238 -0.9912 0.1301
vn -0.0244 -0.9938 0.1088
vn 0.1294 -0.9714 0.1991
vn 0.7704 -0.1745 0.6132
vn 0.6389 -0.5924 0.4909
vn 0.6971 -0.6290 0.3441
vn 0.5352 -0.1866 0.8239
vn 0.4470 -0.5717 0.6880
vn -0.1582 -0.7573 0.6336
vn 0.0923 -0.6914 0.7166
vn 0.1523 -0.2221 0.9630
vn 0.0239 -0.9912 0.1301
vn 0.4471 -0.5717 0.6880
vn 0.5354 -0.1866 0.8237
vn 0.6971 0.6290 0.3441
vn 0.6389 0.5924 0.4909
vn 0.7704 0.1745 0.6132
vn 0.1411 0.9874 0.0718
vn 0.1294 0.9859 0.1062
vn 0.4470 0.5717 0.6880
vn 0.5352 0.1866 0.8239
vn 0.1294 0.9714 0.1991
vn -0.0013 0.9995 0.0305
vn 0.0280 0.9987 0.0431
vn 0.0356 0.9991 0.0224
vn -0.0244 0.9938 0.1088
vn 0.0238 0.9912 0.1301
vn 0.1523 0.2221 0.9631
vn 0.0923 0.6913 0.7166
vn -0.1582 0.7572 0.6337
vn 0.5354 0.1866 0.8237
vn 0.4471 0.5717 0.6880
vn -0.0122 -0.9999 0.0028
vn -0.0206 -0.9995 0.0227
vn -0.0502 -0.9987 0.0110
vn -0.0412 -0.9991 -0.0091
vn -0.0590 -0.9938 0.0946
vn -0.1083 -0.9912 0.0759
vn -0.1667 -0.9859 -0.0152
vn -0.1509 -0.9874 -0.0479
vn -0.2319 -0.9714 0.0510
vn -0.7844 -0.2221 0.5791
vn -0.5687 -0.6914 0.4456
vn -0.3321 -0.7572 0.5624
vn -0.9594 -0.1869 0.2111
vn -0.7952 -0.5805 0.1749
vn -0.7380 -0.6290 -0.2441
vn -0.7996 -0.5924 -0.0987
vn -0.9792 -0.1745 -0.1039
vn -0.0412 0.9991 -0.0091
vn -0.0502 0.9987 0.0110
vn -0.0206 0.9995 0.0226
vn -0.1509 0.9874 -0.0479
vn -0.1667 0.9859 -0.0152
vn -0.1083 0.9912 0.0759
vn -0.0590 0.9938 0.0946
vn -0.2319 0.9714 0.0510
vn -0.9792 0.1745 -0.1039
vn -0.7996 0.5924 -0.0987
vn -0.7381 0.6290 -0.2441
vn -0.9594 0.1869 0.2111
vn -0.7952 0.5805 0.1749
vn -0.3321 0.7572 0.5624
vn -0.5687 0.6913 0.4457
vn -0.7844 0.2221 0.5791
vn 0.0122 -0.9999 -0.0028
vn 0.0206 -0.9995 -0.0227
vn 0.0502 -0.9987 -0.0110
vn 0.0412 -0.9991 0.0091
vn 0.0591 -0.9938 -0.0946
vn 0.1084 -0.9912 -0.0759
vn 0.1667 -0.9859 0.0152
vn 0.1509 -0.9874 0.0479
vn 0.2326 -0.9712 -0.0512
vn 0.7844 -0.2221 -0.5791
vn 0.5687 -0.6914 -0.4456
vn 0.3321 -0.7572 -0.5624
vn 0.9594 -0.1869 -0.2111
vn 0.7952 -0.5806 -0.1749
vn 0.7380 -0.6290 0.2441
vn 0.7996 -0.5924 0.0987
vn 0.9792 -0.1745 0.1039
vn 0.0412 0.9991 0.0091
vn 0.0502 0.9987 -0.0110
vn 0.0206 0.9995 -0.0226
vn 0.1509 0.9874 0.0479
vn 0.1667 0.9859 0.0152
vn 0.1084 0.9912 -0.0759
vn 0.0591 0.9938 -0.0946
vn 0.2319 0.9714 -0.0510
vn 0.9792 0.1745 0.1039
vn 0.7996 0.5924 0.0987
vn 0.7381 0.6290 0.2441
vn 0.9594 0.1869 -0.2111
vn 0.8013 0.5717 -0.1763
vn 0.3321 0.7572 -0.5624
vn 0.5687 0.6913 -0.4457
vn 0.7844 0.2221 -0.5791
vn 0.8013 0.5717 -0.1762
vn -0.0068 -0.9999 -0.0106
vn -0.0356 -0.9991 -0.0224
vn -0.0280 -0.9987 -0.0431
vn 0.0013 -0.9995 -0.0306
vn -0.1411 -0.9874 -0.0718
vn -0.1294 -0.9859 -0.1062
vn -0.0240 -0.9912 -0.1301
vn 0.0243 -0.9938 -0.1089
vn -0.1298 -0.9712 -0.1997
vn -0.7704 -0.1745 -0.6132
vn -0.6389 -0.5923 -0.4909
vn -0.6971 -0.6290 -0.3441
vn -0.5353 -0.1869 -0.8237
vn -0.4437 -0.5806 -0.6827
vn 0.1582 -0.7573 -0.6336
vn -0.0923 -0.6914 -0.7166
vn -0.1523 -0.2221 -0.9631
vn 0.0013 0.9995 -0.0306
vn -0.0280 0.9987 -0.0431
vn -0.0356 0.9991 -0.0224
vn 0.0243 0.9938 -0.1089
vn -0.0240 0.9912 -0.1301
vn -0.1294 0.9859 -0.1062
vn -0.1411 0.9874 -0.0718
vn -0.1298 0.9712 -0.1997
vn -0.1523 0.2221 -0.9631
vn -0.0923 0.6913 -0.7166
vn 0.1582 0.7572 -0.6337
vn -0.5353 0.1869 -0.8237
vn -0.4437 0.5806 -0.6827
vn -0.6971 0.6290 -0.3441
vn -0.6389 0.5924 -0.4909
vn -0.7704 0.1745 -0.6132
vt 0.587956 0.756250
vt 0.618750 0.756250
vt 0.618750 0.993750
vt 0.587956 0.993750
vt 0.587956 0.506250
vt 0.618750 0.506250
vt 0.618750 0.743750
vt 0.587956 0.743750
vt 0.631250 0.506250
vt 0.868750 0.506250
vt 0.868750 0.743750
vt 0.631250 0.743750
vt 0.587956 0.006250
vt 0.618750 0.006250
vt 0.618750 0.243750
vt 0.587956 0.243750
vt 0.587956 0.256250
vt 0.618750 0.256250
vt 0.618750 0.493750
vt 0.587956 0.493750
vt 0.337956 0.743750
vt 0.337956 0.746142
vt 0.335504 0.746202
vt 0.335564 0.743750
vt 0.337956 0.750000
vt 0.335628 0.750000
vt 0.331706 0.746077
vt 0.331706 0.743750
vt 0.334347 0.750000
vt 0.587956 0.996142
vt 0.585504 0.996202
vt 0.585564 0.993750
vt 0.587956 1.000000
vt 0.585628 1.000000
vt 0.581706 0.996077
vt 0.581706 0.993750
vt 0.584347 1.000000
vt 0.585564 0.006250
vt 0.585504 0.003798
vt 0.587956 0.003858
vt 0.581706 0.006250
vt 0.581706 0.003923
vt 0.585628 0.000000
vt 0.587956 0.000000
vt 0.581706 0.002642
vt 0.621142 0.993750
vt 0.621202 0.996202
vt 0.618750 0.996142
vt 0.625000 0.993750
vt 0.625000 0.996077
vt 0.621077 1.000000
vt 0.618750 1.000000
vt 0.625000 0.997358
vt 0.871142 0.743750
vt 0.871202 0.746202
vt 0.868750 0.746142
vt 0.875000 0.743750
vt 0.875000 0.746077
vt 0.871077 0.750000
vt 0.868750 0.750000
vt 0.875000 0.747358
vt 0.618750 0.003858
vt 0.621202 0.003798
vt 0.621142 0.006250
vt 0.618750 0.000000
vt 0.621077 0.000000
vt 0.625000 0.003923
vt 0.625000 0.006250
vt 0.622358 0.000000
vt 0.337956 0.506250
vt 0.335564 0.506250
vt 0.335504 0.503798
vt 0.337956 0.503858
vt 0.331706 0.506250
vt 0.331706 0.503923
vt 0.335628 0.500000
vt 0.337956 0.500000
vt 0.331706 0.502642
vt 0.587956 0.246142
vt 0.585504 0.246202
vt 0.585564 0.243750
vt 0.587956 0.250000
vt 0.585628 0.250000
vt 0.581706 0.246077
vt 0.581706 0.243750
vt 0.584347 0.250000
vt 0.585564 0.256250
vt 0.585504 0.253798
vt 0.587956 0.253858
vt 0.581706 0.256250
vt 0.581706 0.253923
vt 0.581706 0.252642
vt 0.868750 0.503858
vt 0.871202 0.503798
vt 0.871142 0.506250
vt 0.868750 0.500000
vt 0.871077 0.500000
vt 0.875000 0.503923
vt 0.875000 0.506250
vt 0.872358 0.500000
vt 0.618750 0.253858
vt 0.621202 0.253798
vt 0.621142 0.256250
vt 0.618750 0.250000
vt 0.621077 0.250000
vt 0.625000 0.253923
vt 0.625000 0.256250
vt 0.622358 0.250000
vt 0.621142 0.243750
vt 0.621202 0.246202
vt 0.618750 0.246142
vt 0.625000 0.243750
vt 0.625000 0.246077
vt 0.625000 0.247358
vt 0.575456 0.743750
vt 0.577848 0.743750
vt 0.577907 0.746202
vt 0.575456 0.746142
vt 0.581706 0.743750
vt 0.581706 0.746077
vt 0.577783 0.750000
vt 0.575456 0.750000
vt 0.582586 0.750000
vt 0.587956 0.746142
vt 0.585504 0.746202
vt 0.585564 0.743750
vt 0.587956 0.750000
vt 0.585628 0.750000
vt 0.585564 0.756250
vt 0.585504 0.753798
vt 0.587956 0.753858
vt 0.581706 0.756250
vt 0.581706 0.753923
vt 0.631250 0.746142
vt 0.628798 0.746202
vt 0.628858 0.743750
vt 0.631250 0.750000
vt 0.628923 0.750000
vt 0.625000 0.746077
vt 0.625000 0.743750
vt 0.625000 0.749119
vt 0.618750 0.753858
vt 0.621202 0.753798
vt 0.621142 0.756250
vt 0.618750 0.750000
vt 0.621077 0.750000
vt 0.625000 0.753923
vt 0.625000 0.756250
vt 0.621142 0.743750
vt 0.621202 0.746202
vt 0.618750 0.746142
vt 0.575456 0.506250
vt 0.575456 0.503858
vt 0.577907 0.503798
vt 0.577848 0.506250
vt 0.575456 0.500000
vt 0.577783 0.500000
vt 0.581706 0.503923
vt 0.581706 0.506250
vt 0.581706 0.500881
vt 0.587956 0.496142
vt 0.585504 0.496202
vt 0.585564 0.493750
vt 0.587956 0.500000
vt 0.585628 0.500000
vt 0.581706 0.496077
vt 0.581706 0.493750
vt 0.585564 0.506250
vt 0.585504 0.503798
vt 0.587956 0.503858
vt 0.628858 0.506250
vt 0.628798 0.503798
vt 0.631250 0.503858
vt 0.625000 0.506250
vt 0.625000 0.503923
vt 0.628923 0.500000
vt 0.631250 0.500000
vt 0.624120 0.500000
vt 0.618750 0.503858
vt 0.621202 0.503798
vt 0.621142 0.506250
vt 0.618750 0.500000
vt 0.621077 0.500000
vt 0.621142 0.493750
vt 0.621202 0.496202
vt 0.618750 0.496142
vt 0.625000 0.493750
vt 0.625000 0.496077
s 1
usemtl granite_001.001
f 107/1/1 127/2/2 28/3/3
f 107/1/1 28/3/3 2/4/4
f 150/5/5 170/6/6 128/7/7
f 150/5/5 128/7/7 106/8/8
f 169/9/9 80/10/10 29/11/11
f 169/9/9 29/11/11 126/12/12
f 3/13/13 30/14/14 82/15/15
f 3/13/13 82/15/15 56/16/16
f 57/17/17 81/18/18 171/19/19
f 57/17/17 171/19/19 149/20/20
f 1/21/21 4/22/22 8/23/23
f 1/21/21 8/23/23 7/24/24
f 4/22/22 5/25/25 9/26/26
f 4/22/22 9/26/26 8/23/23
f 7/24/24 8/23/23 26/27/27
f 7/24/24 26/27/27 22/28/28
f 8/23/23 9/26/26 11/29/29
f 8/23/23 11/29/29 26/27/27
f 2/4/4 14/30/30 18/31/31
f 2/4/4 18/31/31 17/32/32
f 14/30/30 15/33/33 19/34/34
f 14/30/30 19/34/34 18/31/31
f 17/32/32 18/31/31 10/35/26
f 17/32/32 10/35/26 6/36/25
f 18/31/31 19/34/34 13/37/29
f 18/31/31 13/37/29 10/35/26
f 3/13/13 21/38/35 25/39/36
f 3/13/13 25/39/36 24/40/37
f 21/38/35 23/41/28 27/42/38
f 21/38/35 27/42/38 25/39/36
f 24/40/37 25/39/36 20/43/39
f 24/40/37 20/43/39 16/44/40
f 25/39/36 27/42/38 12/45/29
f 25/39/36 12/45/29 20/43/39
f 28/3/3 31/46/41 35/47/42
f 28/3/3 35/47/42 34/48/43
f 31/46/41 32/49/44 36/50/45
f 31/46/41 36/50/45 35/47/42
f 34/48/43 35/47/42 53/51/46
f 34/48/43 53/51/46 49/52/47
f 35/47/42 36/50/45 39/53/48
f 35/47/42 39/53/48 53/51/46
f 29/11/11 41/54/49 45/55/50
f 29/11/11 45/55/50 44/56/51
f 41/54/49 43/57/52 47/58/53
f 41/54/49 47/58/53 45/55/50
f 44/56/51 45/55/50 37/59/45
f 44/56/51 37/59/45 33/60/44
f 45/55/50 47/58/53 40/61/48
f 45/55/50 40/61/48 37/59/45
f 30/14/14 48/62/54 52/63/55
f 30/14/14 52/63/55 51/64/56
f 48/62/54 50/65/57 54/66/58
f 48/62/54 54/66/58 52/63/55
f 51/64/56 52/63/55 46/67/53
f 51/64/56 46/67/53 42/68/52
f 52/63/55 54/66/58 38/69/48
f 52/63/55 38/69/48 46/67/53
f 55/70/59 58/71/60 62/72/61
f 55/70/59 62/72/61 61/73/62
f 58/71/60 59/74/63 63/75/64
f 58/71/60 63/75/64 62/72/61
f 61/73/62 62/72/61 78/76/65
f 61/73/62 78/76/65 74/77/66
f 62/72/61 63/75/64 65/78/67
f 62/72/61 65/78/67 78/76/65
f 56/16/16 68/79/68 71/80/69
f 56/16/16 71/80/69 70/81/70
f 68/79/68 69/82/71 72/83/72
f 68/79/68 72/83/72 71/80/69
f 70/81/70 71/80/69 64/84/64
f 70/81/70 64/84/64 60/85/63
f 71/80/69 72/83/72 67/86/67
f 71/80/69 67/86/67 64/84/64
f 57/17/17 73/87/73 77/88/74
f 57/17/17 77/88/74 76/89/75
f 73/87/73 75/90/66 79/91/65
f 73/87/73 79/91/65 77/88/74
f 76/89/75 77/88/74 72/83/72
f 76/89/75 72/83/72 69/82/71
f 77/88/74 79/91/65 66/92/67
f 77/88/74 66/92/67 72/83/72
f 80/10/10 83/93/76 87/94/77
f 80/10/10 87/94/77 86/95/78
f 83/93/76 85/96/79 89/97/80
f 83/93/76 89/97/80 87/94/77
f 86/95/78 87/94/77 104/98/81
f 86/95/78 104/98/81 100/99/82
f 87/94/77 89/97/80 92/100/83
f 87/94/77 92/100/83 104/98/81
f 81/18/18 93/101/84 96/102/85
f 81/18/18 96/102/85 95/103/86
f 93/101/84 94/104/87 97/105/88
f 93/101/84 97/105/88 96/102/85
f 95/103/86 96/102/85 88/106/80
f 95/103/86 88/106/80 84/107/79
f 96/102/85 97/105/88 90/108/83
f 96/102/85 90/108/83 88/106/80
f 82/15/15 98/109/89 102/110/90
f 82/15/15 102/110/90 101/111/91
f 98/109/89 99/112/82 103/113/81
f 98/109/89 103/113/81 102/110/90
f 101/111/91 102/110/90 97/105/88
f 101/111/91 97/105/88 94/104/87
f 102/110/90 103/113/81 91/114/83
f 102/110/90 91/114/83 97/105/88
f 105/115/92 108/116/93 111/117/94
f 105/115/92 111/117/94 110/118/95
f 108/116/93 109/119/96 112/120/97
f 108/116/93 112/120/97 111/117/94
f 110/118/95 111/117/94 124/121/98
f 110/118/95 124/121/98 120/122/99
f 111/117/94 112/120/97 113/123/100
f 111/117/94 113/123/100 124/121/98
f 106/8/8 114/124/101 117/125/102
f 106/8/8 117/125/102 116/126/103
f 114/124/101 115/127/104 118/128/105
f 114/124/101 118/128/105 117/125/102
f 116/126/103 117/125/102 112/120/97
f 116/126/103 112/120/97 109/119/96
f 117/125/102 118/128/105 113/123/100
f 117/125/102 113/123/100 112/120/97
f 107/1/1 119/129/106 123/130/107
f 107/1/1 123/130/107 122/131/108
f 119/129/106 121/132/99 125/133/98
f 119/129/106 125/133/98 123/130/107
f 122/131/108 123/130/107 118/128/105
f 122/131/108 118/128/105 115/127/104
f 123/130/107 125/133/98 113/123/100
f 123/130/107 113/123/100 118/128/105
f 126/12/12 129/134/109 133/135/110
f 126/12/12 133/135/110 132/136/111
f 129/134/109 131/137/112 135/138/113
f 129/134/109 135/138/113 133/135/110
f 132/136/111 133/135/110 147/139/114
f 132/136/111 147/139/114 144/140/115
f 133/135/110 135/138/113 136/141/116
f 133/135/110 136/141/116 147/139/114
f 127/2/2 137/142/117 140/143/118
f 127/2/2 140/143/118 139/144/119
f 137/142/117 138/145/120 142/146/121
f 137/142/117 142/146/121 140/143/118
f 139/144/119 140/143/118 134/147/113
f 139/144/119 134/147/113 130/148/112
f 140/143/118 142/146/121 136/141/116
f 140/143/118 136/141/116 134/147/113
f 128/7/7 143/149/122 146/150/123
f 128/7/7 146/150/123 145/151/124
f 143/149/122 144/140/115 147/139/114
f 143/149/122 147/139/114 146/150/123
f 145/151/124 146/150/123 141/146/125
f 145/151/124 141/146/125 138/145/120
f 146/150/123 147/139/114 136/141/116
f 146/150/123 136/141/116 141/146/125
f 148/152/126 151/153/127 155/154/128
f 148/152/126 155/154/128 154/155/129
f 151/153/127 152/156/130 156/157/131
f 151/153/127 156/157/131 155/154/128
f 154/155/129 155/154/128 168/158/132
f 154/155/129 168/158/132 165/159/133
f 155/154/128 156/157/131 158/160/134
f 155/154/128 158/160/134 168/158/132
f 149/20/20 159/161/135 162/162/136
f 149/20/20 162/162/136 161/163/137
f 159/161/135 160/164/138 163/165/139
f 159/161/135 163/165/139 162/162/136
f 161/163/137 162/162/136 157/166/131
f 161/163/137 157/166/131 153/167/130
f 162/162/136 163/165/139 158/160/134
f 162/162/136 158/160/134 157/166/131
f 150/5/5 164/168/140 167/169/141
f 150/5/5 167/169/141 166/170/142
f 164/168/140 165/159/133 168/158/132
f 164/168/140 168/158/132 167/169/141
f 166/170/142 167/169/141 163/165/139
f 166/170/142 163/165/139 160/164/138
f 167/169/141 168/158/132 158/160/134
f 167/169/141 158/160/134 163/165/139
f 169/9/9 172/171/143 175/172/144
f 169/9/9 175/172/144 174/173/145
f 172/171/143 173/174/146 176/175/147
f 172/171/143 176/175/147 175/172/144
f 174/173/145 175/172/144 189/176/148
f 174/173/145 189/176/148 185/177/149
f 175/172/144 176/175/147 177/178/150
f 175/172/144 177/178/150 189/176/148
f 170/6/6 178/179/151 181/180/152
f 170/6/6 181/180/152 180/181/153
f 178/179/151 179/182/154 182/183/155
f 178/179/151 182/183/155 181/180/152
f 180/181/153 181/180/152 176/175/147
f 180/181/153 176/175/147 173/174/146
f 181/180/152 182/183/155 177/178/150
f 181/180/152 177/178/150 176/175/147
f 171/19/19 183/184/156 187/185/157
f 171/19/19 187/185/157 186/186/158
f 183/184/156 184/187/149 188/188/148
f 183/184/156 188/188/148 187/185/157
f 186/186/158 187/185/157 182/183/155
f 186/186/158 182/183/155 179/182/154
f 187/185/157 188/188/148 177/178/150
f 187/185/157 177/178/150 182/183/155
f 55/70/59 1/21/21 7/24/24
f 55/70/59 7/24/24 58/71/60
f 58/71/60 7/24/24 22/28/28
f 58/71/60 22/28/28 59/74/63
f 60/85/63 23/41/28 21/38/35
f 60/85/63 21/38/35 70/81/70
f 70/81/70 21/38/35 3/13/13
f 70/81/70 3/13/13 56/16/16
f 2/4/4 28/3/3 34/48/43
f 2/4/4 34/48/43 14/30/30
f 14/30/30 34/48/43 49/52/47
f 14/30/30 49/52/47 15/33/33
f 16/44/40 50/65/57 48/62/54
f 16/44/40 48/62/54 24/40/37
f 24/40/37 48/62/54 30/14/14
f 24/40/37 30/14/14 3/13/13
f 29/11/11 80/10/10 86/95/78
f 29/11/11 86/95/78 41/54/49
f 41/54/49 86/95/78 100/99/82
f 41/54/49 100/99/82 43/57/52
f 42/68/52 99/112/82 98/109/89
f 42/68/52 98/109/89 51/64/56
f 51/64/56 98/109/89 82/15/15
f 51/64/56 82/15/15 30/14/14
f 81/18/18 57/17/17 76/89/75
f 81/18/18 76/89/75 93/101/84
f 93/101/84 76/89/75 69/82/71
f 93/101/84 69/82/71 94/104/87
f 94/104/87 69/82/71 68/79/68
f 94/104/87 68/79/68 101/111/91
f 101/111/91 68/79/68 56/16/16
f 101/111/91 56/16/16 82/15/15
f 148/152/126 55/70/59 61/73/62
f 148/152/126 61/73/62 151/153/127
f 151/153/127 61/73/62 74/77/66
f 151/153/127 74/77/66 152/156/130
f 153/167/130 75/90/66 73/87/73
f 153/167/130 73/87/73 161/163/137
f 161/163/137 73/87/73 57/17/17
f 161/163/137 57/17/17 149/20/20
f 80/10/10 169/9/9 174/173/145
f 80/10/10 174/173/145 83/93/76
f 83/93/76 174/173/145 185/177/149
f 83/93/76 185/177/149 85/96/79
f 84/107/79 184/187/149 183/184/156
f 84/107/79 183/184/156 95/103/86
f 95/103/86 183/184/156 171/19/19
f 95/103/86 171/19/19 81/18/18
f 170/6/6 150/5/5 166/170/142
f 170/6/6 166/170/142 178/179/151
f 178/179/151 166/170/142 160/164/138
f 178/179/151 160/164/138 179/182/154
f 179/182/154 160/164/138 159/161/135
f 179/182/154 159/161/135 186/186/158
f 186/186/158 159/161/135 149/20/20
f 186/186/158 149/20/20 171/19/19
f 105/115/92 148/152/126 154/155/129
f 105/115/92 154/155/129 108/116/93
f 108/116/93 154/155/129 165/159/133
f 108/116/93 165/159/133 109/119/96
f 109/119/96 165/159/133 164/168/140
f 109/119/96 164/168/140 116/126/103
f 116/126/103 164/168/140 150/5/5
f 116/126/103 150/5/5 106/8/8
f 169/9/9 126/12/12 132/136/111
f 169/9/9 132/136/111 172/171/143
f 172/171/143 132/136/111 144/140/115
f 172/171/143 144/140/115 173/174/146
f 173/174/146 144/140/115 143/149/122
f 173/174/146 143/149/122 180/181/153
f 180/181/153 143/149/122 128/7/7
f 180/181/153 128/7/7 170/6/6
f 127/2/2 107/1/1 122/131/108
f 127/2/2 122/131/108 137/142/117
f 137/142/117 122/131/108 115/127/104
f 137/142/117 115/127/104 138/145/120
f 138/145/120 115/127/104 114/124/101
f 138/145/120 114/124/101 145/151/124
f 145/151/124 114/124/101 106/8/8
f 145/151/124 106/8/8 128/7/7
f 1/21/21 105/115/92 110/118/95
f 1/21/21 110/118/95 4/22/22
f 4/22/22 110/118/95 120/122/99
f 4/22/22 120/122/99 5/25/25
f 6/36/25 121/132/99 119/129/106
f 6/36/25 119/129/106 17/32/32
f 17/32/32 119/129/106 107/1/1
f 17/32/32 107/1/1 2/4/4
f 126/12/12 29/11/11 44/56/51
f 126/12/12 44/56/51 129/134/109
f 129/134/109 44/56/51 33/60/44
f 129/134/109 33/60/44 131/137/112
f 130/148/112 32/49/44 31/46/41
f 130/148/112 31/46/41 139/144/119
f 139/144/119 31/46/41 28/3/3
f 139/144/119 28/3/3 127/2/2
f 55/70/59 148/152/126 105/115/92
f 55/70/59 105/115/92 1/21/21
