# Blender 3.6.1
# www.blender.org
mtllib candle_wick_2.mtl
o candle_wick_2
v 7.525364 4.834406 0.627811
v 7.524666 4.834406 0.628574
v 7.524666 4.834406 0.628574
v 7.523633 4.834406 0.628621
v 7.522870 4.834405 0.627923
v 7.522823 4.834405 0.626890
v 7.523521 4.834405 0.626126
v 7.524555 4.834405 0.626079
v 7.525318 4.834405 0.626778
v 7.525651 4.854357 0.628480
v 7.524954 4.854357 0.629243
v 7.524954 4.854357 0.629243
v 7.523921 4.854357 0.629290
v 7.523157 4.854356 0.628592
v 7.523110 4.854355 0.627559
v 7.523808 4.854354 0.626795
v 7.524842 4.854355 0.626749
v 7.525605 4.854356 0.627447
v 7.525805 4.861986 0.628835
v 7.525651 4.869610 0.628480
v 7.524954 4.869661 0.629244
v 7.524954 4.869661 0.629244
v 7.525107 4.861986 0.629600
v 7.525107 4.861986 0.629600
v 7.523921 4.869686 0.629289
v 7.524071 4.861986 0.629646
v 7.523158 4.869670 0.628591
v 7.523308 4.861986 0.628946
v 7.523110 4.869623 0.627558
v 7.523264 4.861986 0.627913
v 7.523808 4.869571 0.626795
v 7.523962 4.861986 0.627152
v 7.524842 4.869546 0.626750
v 7.524992 4.861986 0.627105
v 7.525605 4.869562 0.627449
v 7.525757 4.861986 0.627801
v 7.524994 4.877599 0.627689
v 7.525378 4.877102 0.627960
v 7.525378 4.877102 0.627960
v 7.524485 4.877659 0.628241
v 7.524710 4.877167 0.628680
v 7.524710 4.877167 0.628680
v 7.524710 4.877167 0.628680
v 7.523996 4.877684 0.628276
v 7.523702 4.877227 0.628723
v 7.523702 4.877227 0.628723
v 7.523346 4.877677 0.627691
v 7.522967 4.877230 0.628072
v 7.522967 4.877230 0.628072
v 7.523335 4.877656 0.627199
v 7.522895 4.877162 0.627040
v 7.522895 4.877162 0.627040
v 7.523850 4.877594 0.626631
v 7.523575 4.877092 0.626284
v 7.523575 4.877092 0.626284
v 7.524342 4.877563 0.626597
v 7.524623 4.877061 0.626253
v 7.524623 4.877061 0.626253
v 7.524987 4.877571 0.627199
v 7.525344 4.877063 0.626940
v 7.525344 4.877063 0.626940
vn -0.0852 0.9155 0.3933
vn 0.2325 0.8966 0.3770
vn 0.4893 0.8661 0.1022
vn 0.4777 0.8515 -0.2162
vn -0.3987 0.9092 0.1198
vn 0.1722 0.8434 -0.5090
vn -0.4086 0.8904 -0.2005
vn -0.1477 0.8583 -0.4914
vn -0.9420 -0.0419 -0.3330
vn -0.8854 0.3184 -0.3386
vn -0.4048 0.2787 -0.8709
vn -0.4233 -0.0623 -0.9039
vn 0.3467 0.2925 -0.8912
vn 0.3464 -0.0442 -0.9370
vn 0.8506 0.3228 -0.4150
vn 0.9084 0.0010 -0.4181
vn 0.9386 0.0461 0.3419
vn 0.8802 0.3565 0.3134
vn 0.4077 0.3929 0.8243
vn 0.4235 0.0657 0.9035
vn 0.9021 0.0015 -0.4316
vn 0.9052 0.0016 -0.4250
vn 0.9401 -0.0299 0.3396
vn 0.9421 -0.0248 0.3345
vn 0.3354 0.0268 -0.9417
vn 0.3399 0.0318 -0.9399
vn -0.4235 0.0365 -0.9052
vn -0.4232 0.0435 -0.9050
vn -0.9377 0.0251 -0.3466
vn -0.9393 0.0299 -0.3417
vn -0.9095 -0.0008 0.4158
vn -0.9068 -0.0012 0.4216
vn -0.3465 -0.0264 0.9377
vn -0.3416 -0.0318 0.9393
vn 0.4237 -0.0365 0.9051
vn 0.4234 -0.0437 0.9049
vn 0.4238 -0.0365 0.9050
vn 0.9103 -0.0000 -0.4138
vn 0.9375 -0.0000 0.3480
vn 0.3479 -0.0000 -0.9375
vn -0.4237 -0.0002 -0.9058
vn -0.9430 -0.0000 -0.3327
vn -0.9013 -0.0002 0.4331
vn -0.9026 0.0045 0.4305
vn -0.3338 -0.0000 0.9427
vn -0.3373 0.0487 0.9401
vn 0.4237 -0.0001 0.9058
vn 0.4077 0.3929 0.8242
vn -0.3163 0.4149 0.8531
vn -0.8308 0.3884 0.3986
vn 0.8801 0.3568 0.3133
vn -0.8308 0.3884 0.3987
vn -0.8855 0.3182 -0.3386
vn 0.3466 0.2924 -0.8913
vn 0.8505 0.3229 -0.4151
vt 0.010393 0.006753
vt 0.010253 0.008607
vt 0.008215 0.010515
vt 0.006348 0.010553
vt 0.008159 0.004357
vt 0.004083 0.008148
vt 0.006303 0.004353
vt 0.004229 0.006288
vt 0.660109 0.045997
vt 0.630967 0.045919
vt 0.631126 0.042013
vt 0.660216 0.042022
vt 0.631362 0.037992
vt 0.660402 0.038053
vt 0.631612 0.034181
vt 0.660558 0.034084
vt 0.660584 0.030111
vt 0.631712 0.030257
vt 0.631532 0.026470
vt 0.660456 0.026130
vt 0.795973 0.034173
vt 0.719134 0.034139
vt 0.718990 0.030167
vt 0.795839 0.030195
vt 0.796104 0.038153
vt 0.719279 0.038107
vt 0.796152 0.042135
vt 0.719336 0.042075
vt 0.796089 0.046118
vt 0.719263 0.046043
vt 0.795948 0.050097
vt 0.719109 0.050011
vt 0.795811 0.054075
vt 0.718962 0.053984
vt 0.795755 0.058055
vt 0.718912 0.057963
vt 0.718936 0.026189
vt 0.795780 0.026215
vt 0.689739 0.034037
vt 0.689749 0.030039
vt 0.689730 0.038043
vt 0.689723 0.042052
vt 0.689726 0.046059
vt 0.689728 0.050063
vt 0.660139 0.049970
vt 0.689730 0.054062
vt 0.660274 0.053943
vt 0.689731 0.058055
vt 0.660419 0.057920
vt 0.689757 0.026046
vt 0.631493 0.057543
vt 0.631210 0.053665
vt 0.630973 0.049900
vt 0.012592 0.009836
vt 0.009512 0.012877
vt 0.012672 0.005456
vt 0.009892 0.002281
vt 0.005342 0.001953
vt 0.001953 0.004929
vt 0.001953 0.009636
vt 0.005016 0.012678
s 1
usemtl Candle_2.005
f 44/1/1 40/2/2 37/3/3
f 44/1/1 37/3/3 59/4/4
f 47/5/5 44/1/1 59/4/4
f 47/5/5 59/4/4 56/6/6
f 50/7/7 47/5/5 56/6/6
f 50/7/7 56/6/6 53/8/8
f 29/9/9 52/10/10 55/11/11
f 29/9/9 55/11/11 31/12/12
f 31/12/12 55/11/11 58/13/13
f 31/12/12 58/13/13 33/14/14
f 33/14/14 58/13/13 61/15/15
f 33/14/14 61/15/15 35/16/16
f 20/17/17 39/18/18 43/19/19
f 20/17/17 43/19/19 22/20/20
f 9/21/21 18/22/22 10/23/23
f 9/21/21 10/23/23 1/24/24
f 8/25/25 17/26/26 18/22/22
f 8/25/25 18/22/22 9/21/21
f 7/27/27 16/28/28 17/26/26
f 7/27/27 17/26/26 8/25/25
f 6/29/29 15/30/30 16/28/28
f 6/29/29 16/28/28 7/27/27
f 5/31/31 14/32/32 15/30/30
f 5/31/31 15/30/30 6/29/29
f 4/33/33 13/34/34 14/32/32
f 4/33/33 14/32/32 5/31/31
f 2/35/35 11/36/36 13/34/34
f 2/35/35 13/34/34 4/33/33
f 1/24/24 10/23/23 12/37/36
f 1/24/24 12/37/36 3/38/37
f 18/22/22 36/39/38 19/40/39
f 18/22/22 19/40/39 10/23/23
f 36/39/38 35/16/16 20/17/17
f 36/39/38 20/17/17 19/40/39
f 17/26/26 34/41/40 36/39/38
f 17/26/26 36/39/38 18/22/22
f 34/41/40 33/14/14 35/16/16
f 34/41/40 35/16/16 36/39/38
f 16/28/28 32/42/41 34/41/40
f 16/28/28 34/41/40 17/26/26
f 32/42/41 31/12/12 33/14/14
f 32/42/41 33/14/14 34/41/40
f 15/30/30 30/43/42 32/42/41
f 15/30/30 32/42/41 16/28/28
f 30/43/42 29/9/9 31/12/12
f 30/43/42 31/12/12 32/42/41
f 14/32/32 28/44/43 30/43/42
f 14/32/32 30/43/42 15/30/30
f 28/44/43 27/45/44 29/9/9
f 28/44/43 29/9/9 30/43/42
f 13/34/34 26/46/45 28/44/43
f 13/34/34 28/44/43 14/32/32
f 26/46/45 25/47/46 27/45/44
f 26/46/45 27/45/44 28/44/43
f 11/36/36 23/48/47 26/46/45
f 11/36/36 26/46/45 13/34/34
f 23/48/47 21/49/20 25/47/46
f 23/48/47 25/47/46 26/46/45
f 10/23/23 19/40/39 24/50/47
f 10/23/23 24/50/47 12/37/36
f 19/40/39 20/17/17 22/20/20
f 19/40/39 22/20/20 24/50/47
f 21/49/20 42/51/48 46/52/49
f 21/49/20 46/52/49 25/47/46
f 25/47/46 46/52/49 49/53/50
f 25/47/46 49/53/50 27/45/44
f 27/45/44 49/53/50 52/10/10
f 27/45/44 52/10/10 29/9/9
f 37/3/3 40/2/2 41/54/19
f 37/3/3 41/54/19 38/55/51
f 40/2/2 44/1/1 45/56/49
f 40/2/2 45/56/49 41/54/19
f 44/1/1 47/5/5 48/57/52
f 44/1/1 48/57/52 45/56/49
f 47/5/5 50/7/7 51/58/53
f 47/5/5 51/58/53 48/57/52
f 50/7/7 53/8/8 54/59/11
f 50/7/7 54/59/11 51/58/53
f 53/8/8 56/6/6 57/60/54
f 53/8/8 57/60/54 54/59/11
f 56/6/6 59/4/4 60/61/55
f 56/6/6 60/61/55 57/60/54
f 59/4/4 37/3/3 38/55/51
f 59/4/4 38/55/51 60/61/55
f 35/16/16 61/15/15 39/18/18
f 35/16/16 39/18/18 20/17/17
